<svg id="favicon" width="200" height="200" viewBox="0 0 200 200" fill="none" xmlns="http://www.w3.org/2000/svg">
    <g clip-path="url(#clip0_24_26)">
        <path
            d="M100.254 200C97.0998 200 94.4337 197.716 93.6699 194.656C91.2352 184.903 86.5744 174.531 79.6875 163.542C71.5278 150.347 59.8958 138.108 44.7917 126.823C31.6549 116.894 18.5181 110.123 5.38138 106.511C2.27005 105.656 0 102.897 0 99.6702C0 96.5066 2.18273 93.7795 5.22473 92.9109C18.1045 89.2335 30.5122 83.2631 42.4479 75C56.1632 65.4514 67.6215 53.993 76.8229 40.625C84.9629 28.7165 90.5507 16.9388 93.5863 5.29206C94.3815 2.24094 97.0676 -7.62939e-06 100.221 -7.62939e-06C103.409 -7.62939e-06 106.114 2.29057 106.89 5.38329C108.642 12.3654 111.38 19.512 115.104 26.8229C119.792 35.8507 125.781 44.5312 133.073 52.8646C140.538 61.0243 148.872 68.4028 158.073 75C170.097 83.5231 182.32 89.5111 194.744 92.964C197.792 93.8109 200 96.5244 200 99.6874C200 102.898 197.725 105.634 194.629 106.483C186.754 108.642 178.648 112.124 170.313 116.927C160.243 122.83 150.868 129.861 142.187 138.021C133.507 146.007 126.389 154.427 120.833 163.281C113.933 174.293 109.267 184.745 106.837 194.639C106.083 197.708 103.413 200 100.254 200Z" />
    </g>
    <g clip-path="url(#clip1_24_26)">
        <path
            d="M29.4689 170.89C27.2386 168.66 26.9684 165.16 28.592 162.456C33.7669 153.838 37.8053 143.208 40.7059 130.568C44.2664 115.468 44.6956 98.5885 41.9951 79.9285C39.7269 63.6186 35.2256 49.5416 28.4906 37.6985C26.8951 34.8939 27.2408 31.3378 29.5225 29.0561C31.7595 26.8191 35.2313 26.4342 37.9965 27.971C49.7042 34.4781 62.6995 39.0299 76.9822 41.6268C93.4322 44.5731 109.637 44.5731 125.596 41.6268C139.772 38.9621 152.051 34.5852 162.433 28.4962C165.153 26.901 168.637 27.2158 170.867 29.4456C173.121 31.6998 173.414 35.2322 171.776 37.9678C168.078 44.1438 164.96 51.1333 162.424 58.9361C159.355 68.6346 157.452 79.0075 156.716 90.0564C156.225 101.105 156.9 112.215 158.741 123.386C161.217 137.915 165.626 150.792 171.969 162.019C173.526 164.773 173.168 168.253 170.932 170.49C168.661 172.76 165.118 173.086 162.329 171.497C155.234 167.455 147.04 164.185 137.75 161.688C126.455 158.741 114.854 157.084 102.946 156.716C91.1612 156.225 80.1741 157.146 69.9847 159.478C57.319 162.385 46.629 166.477 37.9146 171.754C35.2113 173.391 31.7027 173.124 29.4689 170.89Z" />
    </g>
    <defs>
        <clipPath id="clip0_24_26">
            <rect width="200" height="200" fill="white" />
        </clipPath>
        <clipPath id="clip1_24_26">
            <rect width="200" height="200" fill="white" />
        </clipPath>
    </defs>
    <style>
        #favicon path {
            fill: hsl(var(--foreground-1, 0 0% 0%));
        }

        @media (prefers-color-scheme: dark) {
            #favicon path {
                fill: hsl(var(--foreground-1, 100 100% 100%));
            }
        }
    </style>
</svg>